<mxfile host="app.diagrams.net" agent="Mozilla/5.0 (Windows NT 10.0; Win64; x64) AppleWebKit/537.36 (KHTML, like Gecko) Chrome/141.0.0.0 Safari/537.36 Edg/141.0.0.0" version="28.2.8">
  <diagram name="Arquitetura" id="4PyttVejzswEvJL0Qqda">
    <mxGraphModel dx="2550" dy="1007" grid="1" gridSize="10" guides="1" tooltips="1" connect="1" arrows="1" fold="1" page="1" pageScale="1" pageWidth="827" pageHeight="1169" math="0" shadow="0">
      <root>
        <mxCell id="0" />
        <mxCell id="1" parent="0" />
        <mxCell id="jBXj1O4Prd68ZxHoqh5E-29" value="Backend (6h)" style="rounded=1;whiteSpace=wrap;html=1;fillColor=#d5e8d4;strokeColor=#82b366;gradientColor=#97d077;" vertex="1" parent="1">
          <mxGeometry x="160" y="240" width="180" height="50" as="geometry" />
        </mxCell>
        <mxCell id="jBXj1O4Prd68ZxHoqh5E-30" value="Langchain + Memória de Conversa&lt;div&gt;(4h)&lt;/div&gt;" style="rounded=1;whiteSpace=wrap;html=1;fillColor=#fff2cc;strokeColor=#d6b656;gradientColor=#ffd966;" vertex="1" parent="1">
          <mxGeometry x="370" y="240" width="200" height="50" as="geometry" />
        </mxCell>
        <mxCell id="jBXj1O4Prd68ZxHoqh5E-31" value="Frontend (4h)" style="rounded=1;whiteSpace=wrap;html=1;fillColor=#ffcd28;strokeColor=#d79b00;gradientColor=#ffa500;" vertex="1" parent="1">
          <mxGeometry x="590" y="240" width="220" height="50" as="geometry" />
        </mxCell>
        <mxCell id="jBXj1O4Prd68ZxHoqh5E-32" value="Desenho do diagrama (1h)" style="rounded=1;whiteSpace=wrap;html=1;fillColor=#dae8fc;strokeColor=#6c8ebf;gradientColor=#7ea6e0;" vertex="1" parent="1">
          <mxGeometry x="-90" y="240" width="220" height="50" as="geometry" />
        </mxCell>
        <mxCell id="jBXj1O4Prd68ZxHoqh5E-33" value="Testes manuais (2h)" style="rounded=1;whiteSpace=wrap;html=1;fillColor=#f8cecc;strokeColor=#b85450;gradientColor=#ea6b66;" vertex="1" parent="1">
          <mxGeometry x="840" y="240" width="180" height="50" as="geometry" />
        </mxCell>
        <mxCell id="jBXj1O4Prd68ZxHoqh5E-35" style="endArrow=block;" edge="1" parent="1" source="jBXj1O4Prd68ZxHoqh5E-29" target="jBXj1O4Prd68ZxHoqh5E-30">
          <mxGeometry relative="1" as="geometry" />
        </mxCell>
        <mxCell id="jBXj1O4Prd68ZxHoqh5E-36" style="endArrow=block;" edge="1" parent="1" source="jBXj1O4Prd68ZxHoqh5E-30" target="jBXj1O4Prd68ZxHoqh5E-31">
          <mxGeometry relative="1" as="geometry" />
        </mxCell>
        <mxCell id="jBXj1O4Prd68ZxHoqh5E-37" style="endArrow=block;" edge="1" parent="1" source="jBXj1O4Prd68ZxHoqh5E-31" target="jBXj1O4Prd68ZxHoqh5E-33">
          <mxGeometry relative="1" as="geometry" />
        </mxCell>
        <mxCell id="jBXj1O4Prd68ZxHoqh5E-43" value="Definição de Requisitos (1-2h)" style="rounded=1;whiteSpace=wrap;html=1;fillColor=#f5f5f5;strokeColor=#666666;gradientColor=#b3b3b3;" vertex="1" parent="1">
          <mxGeometry x="-340" y="240" width="220" height="50" as="geometry" />
        </mxCell>
        <mxCell id="jBXj1O4Prd68ZxHoqh5E-45" value="" style="endArrow=classic;html=1;rounded=0;exitX=1;exitY=0.5;exitDx=0;exitDy=0;entryX=0;entryY=0.5;entryDx=0;entryDy=0;" edge="1" parent="1" source="jBXj1O4Prd68ZxHoqh5E-32" target="jBXj1O4Prd68ZxHoqh5E-29">
          <mxGeometry width="50" height="50" relative="1" as="geometry">
            <mxPoint x="220" y="170" as="sourcePoint" />
            <mxPoint x="270" y="120" as="targetPoint" />
          </mxGeometry>
        </mxCell>
        <mxCell id="jBXj1O4Prd68ZxHoqh5E-47" value="Documentação (README, informação) 2h" style="rounded=1;whiteSpace=wrap;html=1;fillColor=#e6d0de;strokeColor=#996185;gradientColor=#d5739d;" vertex="1" parent="1">
          <mxGeometry x="1050" y="240" width="180" height="50" as="geometry" />
        </mxCell>
        <mxCell id="jBXj1O4Prd68ZxHoqh5E-48" value="" style="endArrow=classic;html=1;rounded=0;exitX=1;exitY=0.5;exitDx=0;exitDy=0;entryX=0;entryY=0.5;entryDx=0;entryDy=0;" edge="1" parent="1" source="jBXj1O4Prd68ZxHoqh5E-33" target="jBXj1O4Prd68ZxHoqh5E-47">
          <mxGeometry width="50" height="50" relative="1" as="geometry">
            <mxPoint x="330" y="170" as="sourcePoint" />
            <mxPoint x="380" y="120" as="targetPoint" />
          </mxGeometry>
        </mxCell>
        <mxCell id="jBXj1O4Prd68ZxHoqh5E-50" value="" style="endArrow=classic;html=1;rounded=0;exitX=1;exitY=0.5;exitDx=0;exitDy=0;entryX=0;entryY=0.5;entryDx=0;entryDy=0;" edge="1" parent="1" source="jBXj1O4Prd68ZxHoqh5E-43" target="jBXj1O4Prd68ZxHoqh5E-32">
          <mxGeometry width="50" height="50" relative="1" as="geometry">
            <mxPoint x="440" y="170" as="sourcePoint" />
            <mxPoint x="490" y="120" as="targetPoint" />
          </mxGeometry>
        </mxCell>
      </root>
    </mxGraphModel>
  </diagram>
</mxfile>
